{
  "asset": {
    "generator": "Khronos glTF Blender I/O v4.4.56",
    "version": "2.0"
  },
  "extensionsUsed": [
    "KHR_materials_emissive_strength"
  ],
  "scene": 1,
  "scenes": [
    {
      "name": "Scene"
    },
    {
      "name": "tv",
      "nodes": [
        0,
        1,
        2,
        3,
        4,
        5
      ]
    }
  ],
  "nodes": [
    {
      "mesh": 0,
      "name": "20353_Old_Television_set_portable_transistor_style_V2",
      "rotation": [
        -0.0018327228026464581,
        0,
        0,
        1
      ],
      "translation": [
        0,
        7.587101936340332,
        -9.930686950683594
      ]
    },
    {
      "mesh": 1,
      "name": "Cylinder",
      "rotation": [
        -0.9365442395210266,
        -0.25531190633773804,
        -0.23313896358013153,
        0.05785306915640831
      ],
      "scale": [
        0.36583203077316284,
        8.246245384216309,
        0.3665604889392853
      ],
      "translation": [
        9.604561805725098,
        13.482176780700684,
        -19.511869430541992
      ]
    },
    {
      "mesh": 2,
      "name": "Cylinder.001",
      "rotation": [
        -0.9148411154747009,
        0.3738153874874115,
        0.14082781970500946,
        0.05912277102470398
      ],
      "scale": [
        0.3131008446216583,
        7.057628631591797,
        0.3137243092060089
      ],
      "translation": [
        -8.663683891296387,
        17.966590881347656,
        -19.58934783935547
      ]
    },
    {
      "mesh": 3,
      "name": "Cylinder.002",
      "rotation": [
        -0.8035252094268799,
        -0.5936493277549744,
        -0.04145430400967598,
        0.014464701525866985
      ],
      "scale": [
        0.4222489893436432,
        9.517942428588867,
        0.42308974266052246
      ],
      "translation": [
        -2.1438074111938477,
        4.7291669845581055,
        -21.02721405029297
      ]
    },
    {
      "mesh": 4,
      "name": "Cylinder.003",
      "scale": [
        2.0166144371032715,
        1.0612194538116455,
        2.0166144371032715
      ],
      "translation": [
        0.05709923803806305,
        -0.4570388197898865,
        -11.611037254333496
      ]
    },
    {
      "mesh": 5,
      "name": "Cylinder.004",
      "scale": [
        1,
        0.5262381434440613,
        1
      ],
      "translation": [
        0.05709923803806305,
        0.0962529182434082,
        -11.611037254333496
      ]
    }
  ],
  "materials": [
    {
      "doubleSided": true,
      "emissiveFactor": [
        0,
        0.7583936452865601,
        1
      ],
      "extensions": {
        "KHR_materials_emissive_strength": {
          "emissiveStrength": 10
        }
      },
      "name": "tv",
      "pbrMetallicRoughness": {
        "baseColorFactor": [
          1,
          1,
          1,
          1
        ],
        "baseColorTexture": {
          "index": 0,
          "texCoord": 0
        },
        "metallicFactor": 0.1,
        "roughnessFactor": 0.1
      },
      "alphaMode": "BLEND"
    },
    {
      "doubleSided": true,
      "emissiveFactor": [
        0,
        0.7300664186477661,
        1
      ],
      "extensions": {
        "KHR_materials_emissive_strength": {
          "emissiveStrength": 10
        }
      },
      "name": "Material.005",
      "pbrMetallicRoughness": {
        "baseColorFactor": [
          0,
          0.73,
          1,
          0.7
        ],
        "metallicFactor": 0.2,
        "roughnessFactor": 0.2
      },
      "alphaMode": "BLEND"
    },
    {
      "doubleSided": true,
      "emissiveFactor": [
        1,
        0.8504425287246704,
        0
      ],
      "extensions": {
        "KHR_materials_emissive_strength": {
          "emissiveStrength": 10
        }
      },
      "name": "Material.006",
      "pbrMetallicRoughness": {
        "baseColorFactor": [
          1,
          0.85,
          0,
          0.7
        ],
        "metallicFactor": 0.2,
        "roughnessFactor": 0.2
      },
      "alphaMode": "BLEND"
    },
    {
      "doubleSided": true,
      "emissiveFactor": [
        1,
        0,
        0.7025381922721863
      ],
      "extensions": {
        "KHR_materials_emissive_strength": {
          "emissiveStrength": 10
        }
      },
      "name": "Material.007",
      "pbrMetallicRoughness": {
        "baseColorFactor": [
          1,
          0,
          0.7,
          0.7
        ],
        "metallicFactor": 0.2,
        "roughnessFactor": 0.2
      },
      "alphaMode": "BLEND"
    },
    {
      "doubleSided": true,
      "name": "Material.013",
      "pbrMetallicRoughness": {
        "baseColorFactor": [
          0,
          0.0017235147533938289,
          0.8000229597091675,
          1
        ],
        "metallicFactor": 0,
        "roughnessFactor": 0.5
      }
    },
    {
      "doubleSided": true,
      "emissiveFactor": [
        1,
        1,
        1
      ],
      "extensions": {
        "KHR_materials_emissive_strength": {
          "emissiveStrength": 10
        }
      },
      "name": "Material.015",
      "pbrMetallicRoughness": {
        "baseColorFactor": [
          1,
          1,
          1,
          0.8
        ],
        "metallicFactor": 0.1,
        "roughnessFactor": 0.1
      },
      "alphaMode": "BLEND"
    }
  ],
  "meshes": [
    {
      "name": "20353_Old_Television_set_portable_transistor_style_V2",
      "primitives": [
        {
          "attributes": {
            "POSITION": 0,
            "NORMAL": 1,
            "TEXCOORD_0": 2
          },
          "indices": 3,
          "material": 0
        }
      ]
    },
    {
      "name": "Cylinder",
      "primitives": [
        {
          "attributes": {
            "POSITION": 4,
            "NORMAL": 5,
            "TEXCOORD_0": 6
          },
          "indices": 7,
          "material": 1
        }
      ]
    },
    {
      "name": "Cylinder.001",
      "primitives": [
        {
          "attributes": {
            "POSITION": 8,
            "NORMAL": 9,
            "TEXCOORD_0": 10
          },
          "indices": 7,
          "material": 2
        }
      ]
    },
    {
      "name": "Cylinder.002",
      "primitives": [
        {
          "attributes": {
            "POSITION": 11,
            "NORMAL": 12,
            "TEXCOORD_0": 13
          },
          "indices": 7,
          "material": 3
        }
      ]
    },
    {
      "name": "Cylinder.003",
      "primitives": [
        {
          "attributes": {
            "POSITION": 14,
            "NORMAL": 15,
            "TEXCOORD_0": 16
          },
          "indices": 7,
          "material": 4
        }
      ]
    },
    {
      "name": "Cylinder.004",
      "primitives": [
        {
          "attributes": {
            "POSITION": 17,
            "NORMAL": 18,
            "TEXCOORD_0": 19
          },
          "indices": 7,
          "material": 5
        }
      ]
    }
  ],
  "accessors": [
    {
      "bufferView": 0,
      "componentType": 5126,
      "count": 30736,
      "max": [
        4.418099880218506,
        9.968199729919434,
        2.7618000507354736
      ],
      "min": [
        -4.418099880218506,
        0,
        -7.112400054931641
      ],
      "type": "VEC3"
    },
    {
      "bufferView": 1,
      "componentType": 5126,
      "count": 30736,
      "type": "VEC3"
    },
    {
      "bufferView": 2,
      "componentType": 5126,
      "count": 30736,
      "type": "VEC2"
    },
    {
      "bufferView": 3,
      "componentType": 5123,
      "count": 174588,
      "type": "SCALAR"
    },
    {
      "bufferView": 4,
      "componentType": 5126,
      "count": 192,
      "max": [
        1,
        1,
        1
      ],
      "min": [
        -1,
        -1,
        -1
      ],
      "type": "VEC3"
    },
    {
      "bufferView": 5,
      "componentType": 5126,
      "count": 192,
      "type": "VEC3"
    },
    {
      "bufferView": 6,
      "componentType": 5126,
      "count": 192,
      "type": "VEC2"
    },
    {
      "bufferView": 7,
      "componentType": 5123,
      "count": 372,
      "type": "SCALAR"
    },
    {
      "bufferView": 8,
      "componentType": 5126,
      "count": 192,
      "max": [
        1,
        1,
        1
      ],
      "min": [
        -1,
        -1,
        -1
      ],
      "type": "VEC3"
    },
    {
      "bufferView": 9,
      "componentType": 5126,
      "count": 192,
      "type": "VEC3"
    },
    {
      "bufferView": 10,
      "componentType": 5126,
      "count": 192,
      "type": "VEC2"
    },
    {
      "bufferView": 11,
      "componentType": 5126,
      "count": 192,
      "max": [
        1,
        1,
        1
      ],
      "min": [
        -1,
        -1,
        -1
      ],
      "type": "VEC3"
    },
    {
      "bufferView": 12,
      "componentType": 5126,
      "count": 192,
      "type": "VEC3"
    },
    {
      "bufferView": 13,
      "componentType": 5126,
      "count": 192,
      "type": "VEC2"
    },
    {
      "bufferView": 14,
      "componentType": 5126,
      "count": 192,
      "max": [
        1,
        1,
        1
      ],
      "min": [
        -1,
        -1,
        -1
      ],
      "type": "VEC3"
    },
    {
      "bufferView": 15,
      "componentType": 5126,
      "count": 192,
      "type": "VEC3"
    },
    {
      "bufferView": 16,
      "componentType": 5126,
      "count": 192,
      "type": "VEC2"
    },
    {
      "bufferView": 17,
      "componentType": 5126,
      "count": 192,
      "max": [
        1,
        1,
        1
      ],
      "min": [
        -1,
        -1,
        -1
      ],
      "type": "VEC3"
    },
    {
      "bufferView": 18,
      "componentType": 5126,
      "count": 192,
      "type": "VEC3"
    },
    {
      "bufferView": 19,
      "componentType": 5126,
      "count": 192,
      "type": "VEC2"
    }
  ],
  "bufferViews": [
    {
      "buffer": 0,
      "byteLength": 368832,
      "byteOffset": 0,
      "target": 34962
    },
    {
      "buffer": 0,
      "byteLength": 368832,
      "byteOffset": 368832,
      "target": 34962
    },
    {
      "buffer": 0,
      "byteLength": 245888,
      "byteOffset": 737664,
      "target": 34962
    },
    {
      "buffer": 0,
      "byteLength": 349176,
      "byteOffset": 983552,
      "target": 34963
    },
    {
      "buffer": 0,
      "byteLength": 2304,
      "byteOffset": 1332728,
      "target": 34962
    },
    {
      "buffer": 0,
      "byteLength": 2304,
      "byteOffset": 1335032,
      "target": 34962
    },
    {
      "buffer": 0,
      "byteLength": 1536,
      "byteOffset": 1337336,
      "target": 34962
    },
    {
      "buffer": 0,
      "byteLength": 744,
      "byteOffset": 1338872,
      "target": 34963
    },
    {
      "buffer": 0,
      "byteLength": 2304,
      "byteOffset": 1339616,
      "target": 34962
    },
    {
      "buffer": 0,
      "byteLength": 2304,
      "byteOffset": 1341920,
      "target": 34962
    },
    {
      "buffer": 0,
      "byteLength": 1536,
      "byteOffset": 1344224,
      "target": 34962
    },
    {
      "buffer": 0,
      "byteLength": 2304,
      "byteOffset": 1345760,
      "target": 34962
    },
    {
      "buffer": 0,
      "byteLength": 2304,
      "byteOffset": 1348064,
      "target": 34962
    },
    {
      "buffer": 0,
      "byteLength": 1536,
      "byteOffset": 1350368,
      "target": 34962
    },
    {
      "buffer": 0,
      "byteLength": 2304,
      "byteOffset": 1351904,
      "target": 34962
    },
    {
      "buffer": 0,
      "byteLength": 2304,
      "byteOffset": 1354208,
      "target": 34962
    },
    {
      "buffer": 0,
      "byteLength": 1536,
      "byteOffset": 1356512,
      "target": 34962
    },
    {
      "buffer": 0,
      "byteLength": 2304,
      "byteOffset": 1358048,
      "target": 34962
    },
    {
      "buffer": 0,
      "byteLength": 2304,
      "byteOffset": 1360352,
      "target": 34962
    },
    {
      "buffer": 0,
      "byteLength": 1536,
      "byteOffset": 1362656,
      "target": 34962
    }
  ],
  "buffers": [
    {
      "byteLength": 1364192,
      "uri": "data:application/octet-stream;base64,"
    }
  ],
  "images": [
    {
      "uri": "data:image/png;base64,",
      "mimeType": "image/png",
      "name": "scanline_texture"
    }
  ],
  "textures": [
    {
      "source": 0,
      "sampler": 0
    }
  ],
  "samplers": [
    {
      "magFilter": 9728,
      "minFilter": 9728,
      "wrapS": 10497,
      "wrapT": 10497
    }
  ]
}